<svg xmlns="http://www.w3.org/2000/svg" viewBox="0 0 242.68 242.68"><defs><style>.cls-1{fill:#073e53;}.cls-2{fill:#fff;}</style></defs><title>devpost_1</title><g id="Layer_2" data-name="Layer 2"><g id="Layer_1-2" data-name="Layer 1"><circle class="cls-1" cx="121.34" cy="121.34" r="121.34"/><path class="cls-2" d="M81.41,62.05H115a80.07,80.07,0,0,1,23.21,3.31,49.49,49.49,0,0,1,19.18,10.72,51.73,51.73,0,0,1,13,19.26q4.81,11.86,4.81,28.77,0,15-4.67,26.41A56.37,56.37,0,0,1,158,169.71a53.25,53.25,0,0,1-18.25,11.77,59.48,59.48,0,0,1-21.7,4H81.41Zm22.41,98.33h11.64a52.09,52.09,0,0,0,14.44-1.92,28.65,28.65,0,0,0,11.57-6.36,30.23,30.23,0,0,0,7.69-11.68q2.8-7.23,2.8-17.7a40.78,40.78,0,0,0-2.8-15.78,30,30,0,0,0-18.68-17.61A41.43,41.43,0,0,0,117,87.16H103.83Z"/></g></g></svg>