<svg id="Layer_1" data-name="Layer 1" xmlns="http://www.w3.org/2000/svg" viewBox="0 0 330.5 321.76">
	<defs>
		<style>
			.cls-1{font-size:85.44px;
			fill:#fff;stroke-width:2px;
			letter-spacing:0.05em;}.cls-1,.cls-3{stroke:#fff;stroke-miterlimit:10;}.cls-2{letter-spacing:0.05em;}.cls-3{fill:none;stroke-width:1.5px;}
		</style>
		<style type="text/css">
			@font-face {
			font-family: 'simplifica', 'simplifica';
			src: url('simplifica.ttf') format('truetype');
			}
		</style>
	</defs>
<title>namelogo</title><text class="cls-1" transform="translate(15.61 184.35) scale(1.04 1)">TER<tspan class="cls-2" x="95.18" y="0">ES</tspan><tspan x="160.63" y="0">A LIU</tspan></text><path class="cls-3" d="M240.63,128.39V81H110.42l-1.24-1L25,12.52"/><path class="cls-3" d="M270.34,127V62.89H124.09l-1.79-1.42L80,27.89"/><path class="cls-3" d="M197.05,129.82V98.33H95.65l-64.15-51"/><path class="cls-3" d="M81.58,184.68V231H199.8l98.33,78.44"/><path class="cls-3" d="M255.76,303.42,190.7,251.77l-1.77-1.4-140.36.86v-1.4L49,186.08"/><path class="cls-3" d="M115.63,183.24v29.19h94.79l50.26,40.26"/><ellipse class="cls-3" cx="20.18" cy="7.83" rx="7.38" ry="7.08"/><ellipse class="cls-3" cx="74.55" cy="23.31" rx="7.38" ry="7.08"/><ellipse class="cls-3" cx="26.37" cy="41.94" rx="7.38" ry="7.08"/><ellipse class="cls-3" cx="266" cy="256.99" rx="7.38" ry="7.08"/><ellipse class="cls-3" cx="303.79" cy="313.94" rx="7.38" ry="7.08"/><ellipse class="cls-3" cx="260.05" cy="307.82" rx="7.38" ry="7.08"/></svg>