<svg id="Layer_1" data-name="Layer 1" xmlns="http://www.w3.org/2000/svg" viewBox="0 0 792 612"><defs><style>.cls-1{fill:#fff;}.cls-1,.cls-2{stroke:#231f20;stroke-miterlimit:10;stroke-width:8px;}.cls-2{fill:none;}</style></defs><title>rocket</title><path class="cls-1" d="M462,139c-.26.12,30.74,49.63,41.87,110,4.05,22,7.62,42.61.84,68.12-4,14.95-13.31,50.07-45.21,62.88-28.21,11.32-55.1-2.43-59-4.5-30.38-16.15-38.27-48.68-41.5-62-2.23-9.18-5.65-28.2,3.59-70.39A395.18,395.18,0,0,1,404.5,134c6.72-13,19.27-37.39,26.16-50.77l33.2,59.14S462.07,139,462,139Z"/><path class="cls-2" d="M371,345.26,325.83,423.5c-21.47-36.6-22.6-77.64-2.24-104.32,9.14-12,21.05-19,31.32-23.18"/><path class="cls-2" d="M491.9,355.26l45.17,78.24c21.47-36.6,22.6-77.64,2.24-104.32-9.14-12-21.05-19-31.32-23.18"/><path class="cls-1" d="M422.51,408.6c.09,0-10.41-20.34-14.19-45.07-1.37-9-2.58-17.46-.28-27.91,1.35-6.12,4.51-20.52,15.32-25.76,9.56-4.64,18.67,1,20,1.84,10.29,6.62,13,19.95,14.06,25.4.75,3.76,1.91,11.56-1.22,28.84A184.18,184.18,0,0,1,442,410.66l-8.86,20.8-11.25-24.23S422.49,408.61,422.51,408.6Z"/><circle class="cls-1" cx="432.51" cy="241.26" r="29.81"/><path class="cls-2" d="M389.3,161.62C394.4,177.82,418.19,182,432.51,182"/><path class="cls-2" d="M474.2,157.29c0,13.66-19.63,24.71-43.88,24.71"/></svg>