<svg id="Layer_1" data-name="Layer 1" xmlns="http://www.w3.org/2000/svg" viewBox="0 0 792 612"><defs><style>.cls-1{fill:none;}.cls-1,.cls-2{stroke:#fff;stroke-miterlimit:10;stroke-width:10px;}.cls-2{fill:#231f20;}</style></defs><title>whitelogo</title><line class="cls-1" x1="397.03" y1="411.46" x2="269.77" y2="297.62"/><line class="cls-2" x1="500.82" y1="413.01" x2="259.69" y2="197.31"/><line class="cls-2" x1="504.95" y1="323.46" x2="382.37" y2="213.81"/><ellipse class="cls-1" cx="246.76" cy="184.91" rx="19.5" ry="20.78"/><ellipse class="cls-1" cx="518.6" cy="427.09" rx="19.5" ry="20.78"/><path class="cls-1" d="M385.73,198.69c0,8.81-8.73,20.78-19.5,20.78s-19.5-9.3-19.5-20.78,8.73-20.78,19.5-20.78S385.73,187.21,385.73,198.69Z"/><path class="cls-1" d="M544,338.38c0,11.48-8.73,20.78-19.5,20.78s-19.5-9.3-19.5-20.78,8.73-21.78,19.5-21.78S544,326.9,544,338.38Z"/><ellipse class="cls-1" cx="408.75" cy="421.01" rx="19.5" ry="20.78"/><ellipse class="cls-1" cx="251.2" cy="281.7" rx="19.5" ry="20.78"/></svg>